<svg id="exQftKAXDW91" xmlns="http://www.w3.org/2000/svg" xmlns:xlink="http://www.w3.org/1999/xlink" viewBox="0 0 100 100" shape-rendering="geometricPrecision" text-rendering="geometricPrecision"><style><![CDATA[#exQftKAXDW92_ts {animation: exQftKAXDW92_ts__ts 3000ms linear 1 normal forwards}@keyframes exQftKAXDW92_ts__ts { 0% {transform: translate(49.99905px,50.002002px) scale(0.5,0.5)} 33.333333% {transform: translate(49.99905px,50.002002px) scale(0.5,0.5);animation-timing-function: cubic-bezier(0.5,0,0.5,1)} 83.333333% {transform: translate(49.99905px,50.002002px) scale(1,1)} 100% {transform: translate(49.99905px,50.002002px) scale(1,1)}} #exQftKAXDW92 {animation: exQftKAXDW92_c_o 3000ms linear 1 normal forwards}@keyframes exQftKAXDW92_c_o { 0% {opacity: 0} 33.333333% {opacity: 0;animation-timing-function: cubic-bezier(0.5,0,0.5,1)} 83.333333% {opacity: 1} 100% {opacity: 1}}]]></style><g id="exQftKAXDW92_ts" transform="translate(49.99905,50.002002) scale(0.5,0.5)"><g id="exQftKAXDW92" transform="translate(-49.99905,-50.002002)" opacity="0" clip-rule="evenodd"><g clip-path="url(#exQftKAXDW95)" clip-rule="evenodd"><path d="M39.83,46.24v-13.62h11.4c1.24,0,2.41.07,3.51.21s2.07.45,2.91.93s1.5,1.16,1.98,2.04.72,2.08.72,3.6c0,2.28-.71,3.99-2.13,5.13s-3.75,1.71-6.99,1.71h-11.4Zm-5.7-18.42v42.84h20.7c2.12,0,3.99-.35,5.61-1.05s2.98-1.62,4.08-2.76s1.93-2.45,2.49-3.93.84-3,.84-4.56c0-2.64-.7-4.88-2.1-6.72s-3.42-3.04-6.06-3.6v-.12c2.04-.8,3.61-2.03,4.71-3.69s1.65-3.63,1.65-5.91c0-2.16-.49-3.98-1.47-5.46s-2.17-2.64-3.57-3.48c-.64-.4-1.41-.7-2.31-.9s-1.87-.35-2.91-.45-2.09-.16-3.15-.18-2.05-.03-2.97-.03h-15.54Zm5.7,38.04v-14.82h13.02c1.2,0,2.36.11,3.48.33s2.11.6,2.97,1.14s1.55,1.27,2.07,2.19.78,2.08.78,3.48c0,2.4-.71,4.28-2.13,5.64s-3.39,2.04-5.91,2.04h-14.28Z" fill="#64ffda" stroke-linecap="round" stroke-linejoin="round" stroke-miterlimit="10"/><clipPath id="exQftKAXDW95"><rect width="44.099998" height="72.68" rx="0" ry="0" transform="translate(27.950001 13.66)" clip-rule="evenodd" stroke-linecap="round" stroke-linejoin="round" stroke-miterlimit="10"/></clipPath></g><g clip-rule="evenodd"><path d="M31.1441,12.2867l47.14,9.4285" clip-rule="evenodd" fill="none" stroke="#64ffda" stroke-width="5" stroke-linecap="round" stroke-linejoin="round" stroke-miterlimit="10"/><path d="M87.7126,68.8552l-9.4285-47.14" clip-rule="evenodd" fill="none" stroke="#64ffda" stroke-width="5" stroke-linecap="round" stroke-linejoin="round" stroke-miterlimit="10"/><path d="M68.852,87.7173L87.7098,68.858" clip-rule="evenodd" fill="none" stroke="#64ffda" stroke-width="5" stroke-linecap="round" stroke-linejoin="round" stroke-miterlimit="10"/><path d="M12.2855,31.1452L31.1448,12.2874" clip-rule="evenodd" fill="none" stroke="#64ffda" stroke-width="5" stroke-linecap="round" stroke-linejoin="round" stroke-miterlimit="10"/><path d="M21.7162,78.2831l-9.4285-47.14" clip-rule="evenodd" fill="none" stroke="#64ffda" stroke-width="5" stroke-linecap="round" stroke-linejoin="round" stroke-miterlimit="10"/><path d="M21.7184,78.2809l47.1399,9.4286" clip-rule="evenodd" fill="none" stroke="#64ffda" stroke-width="5" stroke-linecap="round" stroke-linejoin="round" stroke-miterlimit="10"/></g></g></g></svg>